<svg xmlns="http://www.w3.org/2000/svg" viewBox="0 0 450 450"><path d="M210 30h30v60h-30zM90 60v30h-30v-30zM120 90v30h-30v-30zM390 60v30h-30v-30zM360 120h-30v-30h30zM210 120h60v30h-90v-30zM180 180h-30v-30h30zM300 150v30h-30v-30zM150 210v60h-30v-90h30zM330 180v90h-30v-90zM60 210h30v30h-60v-30zM390 210h30v30h-60v-30zM180 270v30h-30v-30zM300 300h-30v-30h30zM210 300h60v30h-90v-30zM120 330v30h-30v-30zM90 390h-30v-30h30zM360 330v30h-30v-30zM390 360v30h-30v-30zM240 360v60h-30v-60z" fill="currentColor"/></svg>