<svg xmlns="http://www.w3.org/2000/svg" viewBox="0 0 330 330"><path d="M180 30h90v30h-90zM300 60v90h-30v-90zM210 90h30v30h-60v-30z" fill="rgba(249,168,34,255)"/><path d="M120 90h30v60h30v-30h60v30h30v30h30v90h-30v30h-210v-30h-30v-90h30v-60h30v-30zM90 180v30h-30v30h30v30h120v-30h30v-30h-30v-30z" fill="rgba(255,31,31,255)"/><path d="M150 180h60v30h30v30h-30v30h-30v-60h-90v-30zM90 240h-30v-30h30zM150 270h-30v-30h30z" fill="rgba(255,255,255,255)"/><path d="M120 210h60v60h-30v-30h-30v30h-30v-60z" fill="currentColor"/></svg>