<svg xmlns="http://www.w3.org/2000/svg" shapeRendering="crispEdges" viewBox="0 0 540 540" ><path d="M270 60h90v30h-90zM270 120h-60v-30h60zM390 90v30h-30v-30zM210 150h-60v-30h60zM420 120v30h-30v-30zM150 180h-60v-30h60zM450 150v30h-30v-30zM90 210h-30v120h-30v-150h60zM480 180v30h-30v-30zM510 210v30h-30v-30zM90 330v30h-30v-30zM480 330h30v30h-60v-30zM120 360v30h-30v-30zM420 360h30v30h-60v-30zM150 390v30h-30v-30zM360 390h30v30h-60v-30zM180 420v30h-30v-30zM300 420h30v30h-60v-30zM210 450h60v30h-90v-30z" fill="rgba(22,16,5,255)"/><path d="M300 120h-30v-30h30zM240 150h-30v-30h30zM180 180h-30v-30h30zM120 210h-30v-30h30zM90 240h-30v-30h30zM90 300v30h-30v-30zM120 330v30h-30v-30zM150 360v30h-30v-30zM180 390v30h-30v-30zM210 420v30h-30v-30z" fill="rgba(81,45,15,255)"/><path d="M330 90v30h60v30h30v60h30v30h-60v30h-60v30h-60v30h-90v-30h-30v-30h-30v-60h30v-30h30v-30h60v-30h60v-30zM270 150v30h30v-30zM300 210h30v-30h-30zM180 210v30h30v-30zM330 240h30v-30h-30zM210 270h30v-30h-30z" fill="rgba(101,75,23,255)"/><path d="M360 90v30h-30v-30zM150 180v30h-30v-30zM450 180v30h-30v-30zM120 210v30h-30v-30z" fill="rgba(84,62,19,255)"/><path d="M300 180h-30v-30h30v30h30v30h-30zM210 240h-30v-30h30v30h30v30h-30zM330 240v-30h30v30zM480 210v30h-30v-30zM450 240v30h-60v-30zM390 270v30h-60v-30zM330 300v30h-60v-30zM240 330h30v30h-60v-30zM390 360v30h-30v-30zM300 390h30v30h-60v-30zM240 420h30v30h-60v-30z" fill="rgba(68,37,10,255)"/><path d="M90 240v60h-30v-60zM480 300v30h-30v-30zM420 330v30h-30v-30zM360 360v30h-30v-30z" fill="rgba(49,33,4,255)"/><path d="M120 240v30h-30v-30zM150 270v30h-30v-30zM180 300v30h-30v-30zM210 330v30h-30v-30z" fill="rgba(82,46,16,255)"/><path d="M480 240v30h-30v-30z" fill="rgba(91,91,91,255)"/><path d="M120 270v30h-30v-30zM450 270v30h-30v-30zM150 300v30h-30v-30zM390 300h30v30h-60v-30zM180 330v30h-30v-30zM330 330h30v30h-60v-30zM210 360v30h-30v-30zM270 360h30v30h-60v-30zM240 390v30h-30v-30z" fill="rgba(183,183,183,255)"/><path d="M420 270v30h-30v-30zM480 270v30h-30v-30zM360 300v30h-30v-30zM450 300v30h-30v-30zM300 330v30h-30v-30zM390 330v30h-30v-30zM240 360v30h-30v-30zM330 360v30h-30v-30zM270 390v30h-30v-30z" fill="rgba(153,153,153,255)"/><path d="M120 300v30h-30v-30zM150 330v30h-30v-30zM180 360v30h-30v-30zM210 390v30h-30v-30z" fill="rgba(214,214,214,255)"/><path d="M510 300v30h-30v-30zM450 330v30h-30v-30z" fill="rgba(66,36,9,255)"/></svg>