<svg xmlns="http://www.w3.org/2000/svg" viewBox="0 0 360 360"><rect x="150" y="30" width="30" height="30" fill="rgba(255,216,0,255)" /><rect x="180" y="30" width="30" height="30" fill="rgba(255,143,0,255)" /><rect x="150" y="60" width="30" height="30" fill="rgba(255,255,151,255)" /><rect x="180" y="60" width="30" height="30" fill="rgba(255,255,255,255)" /><rect x="150" y="90" width="30" height="30" fill="rgba(124,98,62,255)" /><rect x="180" y="90" width="30" height="30" fill="rgba(76,61,38,255)" /><rect x="150" y="120" width="30" height="30" fill="rgba(148,116,69,255)" /><rect x="180" y="120" width="30" height="30" fill="rgba(60,47,28,255)" /><rect x="150" y="150" width="30" height="30" fill="rgba(148,116,69,255)" /><rect x="180" y="150" width="30" height="30" fill="rgba(66,53,34,255)" /><rect x="150" y="180" width="30" height="30" fill="rgba(159,127,80,255)" /><rect x="180" y="180" width="30" height="30" fill="rgba(66,53,34,255)" /><rect x="150" y="210" width="30" height="30" fill="rgba(151,119,72,255)" /><rect x="180" y="210" width="30" height="30" fill="rgba(66,53,34,255)" /><rect x="150" y="240" width="30" height="30" fill="rgba(103,82,49,255)" /><rect x="180" y="240" width="30" height="30" fill="rgba(66,53,34,255)" /><rect x="150" y="270" width="30" height="30" fill="rgba(152,120,73,255)" /><rect x="180" y="270" width="30" height="30" fill="rgba(66,53,34,255)" /><rect x="150" y="300" width="30" height="30" fill="rgba(103,82,49,255)" /><rect x="180" y="300" width="30" height="30" fill="rgba(66,53,34,255)" /></svg>