<svg xmlns="http://www.w3.org/2000/svg" viewBox="0 0 420 420"><path d="M90 30h240v330h-240zM120 60v270h180v-270z" fill="currentColor"/><path d="M150 90h-30v-30h30z" fill="rgba(95,92,59,255)"/><path d="M180 60v30h-30v-30z" fill="rgba(122,120,69,255)"/><path d="M210 60v30h-30v-30z" fill="rgba(152,146,94,255)"/><path d="M240 60v30h-30v-30z" fill="rgba(142,140,91,255)"/><path d="M270 60v30h-30v-30z" fill="rgba(179,166,114,255)"/><path d="M300 60v30h-30v-30z" fill="rgba(189,187,148,255)"/><path d="M150 90v30h-30v-30z" fill="rgba(112,112,62,255)"/><path d="M180 90v30h-30v-30z" fill="rgba(163,152,96,255)"/><path d="M210 90v30h-30v-30z" fill="rgba(151,121,71,255)"/><path d="M240 90v30h-30v-30z" fill="rgba(56,42,28,255)"/><path d="M270 90v30h-30v-30z" fill="rgba(212,202,150,255)"/><path d="M300 90v30h-30v-30z" fill="rgba(224,215,159,255)"/><path d="M150 120v30h-30v-30z" fill="rgba(81,83,62,255)"/><path d="M180 120v30h-30v-30z" fill="rgba(88,87,56,255)"/><path d="M210 120v30h-30v-30z" fill="rgba(220,172,96,255)"/><path d="M240 120v30h-30v-30z" fill="rgba(144,103,36,255)"/><path d="M270 120v30h-30v-30z" fill="rgba(121,125,88,255)"/><path d="M300 120v30h-30v-30z" fill="rgba(188,192,116,255)"/><path d="M150 150v30h-30v-30z" fill="rgba(33,33,41,255)"/><path d="M180 150v30h-30v-30z" fill="rgba(85,86,68,255)"/><path d="M210 150v30h-30v-30z" fill="rgba(21,18,34,255)"/><path d="M240 150v30h-30v-30z" fill="rgba(87,63,40,255)"/><path d="M270 150v30h-30v-30z" fill="rgba(76,79,58,255)"/><path d="M300 150v30h-30v-30z" fill="rgba(101,101,57,255)"/><path d="M150 180v30h-30v-30z" fill="rgba(52,52,50,255)"/><path d="M180 180v30h-30v-30z" fill="rgba(77,75,37,255)"/><path d="M210 180v30h-30v-30z" fill="rgba(223,185,100,255)"/><path d="M240 180v30h-30v-30z" fill="rgba(234,192,102,255)"/><path d="M270 180v30h-30v-30z" fill="rgba(116,91,34,255)"/><path d="M300 180v30h-30v-30z" fill="rgba(116,95,53,255)"/><path d="M150 210v30h-30v-30z" fill="rgba(45,41,30,255)"/><path d="M180 210v30h-30v-30z" fill="rgba(16,20,31,255)"/><path d="M210 210v30h-30v-30z" fill="rgba(28,31,36,255)"/><path d="M240 210v30h-30v-30z" fill="rgba(9,18,26,255)"/><path d="M270 210v30h-30v-30z" fill="rgba(90,84,54,255)"/><path d="M300 210v30h-30v-30z" fill="rgba(72,72,80,255)"/><path d="M150 240v30h-30v-30z" fill="rgba(34,44,48,255)"/><path d="M180 240v30h-30v-30z" fill="rgba(53,56,63,255)"/><path d="M210 240v30h-30v-30z" fill="rgba(42,56,64,255)"/><path d="M240 240v30h-30v-30z" fill="rgba(63,79,82,255)"/><path d="M270 240v30h-30v-30z" fill="rgba(63,73,78,255)"/><path d="M300 240v30h-30v-30z" fill="rgba(48,57,62,255)"/><path d="M150 270v30h-30v-30z" fill="rgba(56,65,67,255)"/><path d="M180 270v30h-30v-30z" fill="rgba(67,80,89,255)"/><path d="M210 270v30h-30v-30z" fill="rgba(172,127,65,255)"/><path d="M240 270h30v30h-60v-30z" fill="rgba(63,56,53,255)"/><path d="M300 270v30h-30v-30z" fill="rgba(11,25,28,255)"/><path d="M150 300v30h-30v-30z" fill="rgba(16,21,27,255)"/><path d="M180 300v30h-30v-30z" fill="rgba(8,19,23,255)"/><path d="M210 300v30h-30v-30z" fill="rgba(19,26,36,255)"/><path d="M240 300v30h-30v-30z" fill="rgba(5,19,22,255)"/><path d="M270 300v30h-30v-30z" fill="rgba(8,22,25,255)"/><path d="M300 300v30h-30v-30z" fill="rgba(13,24,28,255)"/></svg>