<svg xmlns="http://www.w3.org/2000/svg" viewBox="0 0 330 330"><path d="M30 30h270v270h-270zM60 60v30h30v-30zM120 60v30h-30v30h-30v30h30v-30h30v-30h30v-30zM180 60v30h-30v30h-30v30h-30v30h-30v30h30v-30h30v-30h30v-30h30v-30h30v-30zM240 60v30h-30v30h-30v30h-30v30h-30v30h-30v30h-30v30h30v-30h30v-30h30v-30h30v-30h30v-30h30v-30h30v-30zM240 120v30h-30v30h-30v30h-30v30h-30v30h30v-30h30v-30h30v-30h30v-30h30v-30zM240 180v30h-30v30h-30v30h30v-30h30v-30h30v-30zM240 240v30h30v-30z" fill="currentColor"/></svg>