<svg xmlns="http://www.w3.org/2000/svg" viewBox="0 0 450 450"><rect x="120" y="30" width="30" height="30" fill="currentColor" /><rect x="150" y="30" width="30" height="30" fill="currentColor" /><rect x="180" y="30" width="30" height="30" fill="currentColor" /><rect x="210" y="30" width="30" height="30" fill="currentColor" /><rect x="240" y="30" width="30" height="30" fill="currentColor" /><rect x="270" y="30" width="30" height="30" fill="currentColor" /><rect x="300" y="30" width="30" height="30" fill="currentColor" /><rect x="330" y="30" width="30" height="30" fill="currentColor" /><rect x="360" y="30" width="30" height="30" fill="currentColor" /><rect x="390" y="30" width="30" height="30" fill="currentColor" /><rect x="120" y="60" width="30" height="30" fill="currentColor" /><rect x="390" y="60" width="30" height="30" fill="currentColor" /><rect x="390" y="90" width="30" height="30" fill="currentColor" /><rect x="30" y="120" width="30" height="30" fill="currentColor" /><rect x="60" y="120" width="30" height="30" fill="currentColor" /><rect x="90" y="120" width="30" height="30" fill="currentColor" /><rect x="120" y="120" width="30" height="30" fill="currentColor" /><rect x="150" y="120" width="30" height="30" fill="currentColor" /><rect x="180" y="120" width="30" height="30" fill="currentColor" /><rect x="210" y="120" width="30" height="30" fill="currentColor" /><rect x="240" y="120" width="30" height="30" fill="currentColor" /><rect x="270" y="120" width="30" height="30" fill="currentColor" /><rect x="300" y="120" width="30" height="30" fill="currentColor" /><rect x="390" y="120" width="30" height="30" fill="currentColor" /><rect x="30" y="150" width="30" height="30" fill="currentColor" /><rect x="300" y="150" width="30" height="30" fill="currentColor" /><rect x="390" y="150" width="30" height="30" fill="currentColor" /><rect x="30" y="180" width="30" height="30" fill="currentColor" /><rect x="300" y="180" width="30" height="30" fill="currentColor" /><rect x="390" y="180" width="30" height="30" fill="currentColor" /><rect x="30" y="210" width="30" height="30" fill="currentColor" /><rect x="300" y="210" width="30" height="30" fill="currentColor" /><rect x="390" y="210" width="30" height="30" fill="currentColor" /><rect x="30" y="240" width="30" height="30" fill="currentColor" /><rect x="300" y="240" width="30" height="30" fill="currentColor" /><rect x="390" y="240" width="30" height="30" fill="currentColor" /><rect x="30" y="270" width="30" height="30" fill="currentColor" /><rect x="300" y="270" width="30" height="30" fill="currentColor" /><rect x="390" y="270" width="30" height="30" fill="currentColor" /><rect x="30" y="300" width="30" height="30" fill="currentColor" /><rect x="300" y="300" width="30" height="30" fill="currentColor" /><rect x="360" y="300" width="30" height="30" fill="currentColor" /><rect x="390" y="300" width="30" height="30" fill="currentColor" /><rect x="30" y="330" width="30" height="30" fill="currentColor" /><rect x="300" y="330" width="30" height="30" fill="currentColor" /><rect x="30" y="360" width="30" height="30" fill="currentColor" /><rect x="300" y="360" width="30" height="30" fill="currentColor" /><rect x="30" y="390" width="30" height="30" fill="currentColor" /><rect x="60" y="390" width="30" height="30" fill="currentColor" /><rect x="90" y="390" width="30" height="30" fill="currentColor" /><rect x="120" y="390" width="30" height="30" fill="currentColor" /><rect x="150" y="390" width="30" height="30" fill="currentColor" /><rect x="180" y="390" width="30" height="30" fill="currentColor" /><rect x="210" y="390" width="30" height="30" fill="currentColor" /><rect x="240" y="390" width="30" height="30" fill="currentColor" /><rect x="270" y="390" width="30" height="30" fill="currentColor" /><rect x="300" y="390" width="30" height="30" fill="currentColor" /></svg>