<svg xmlns="http://www.w3.org/2000/svg" viewBox="0 0 330 330"><rect x="30" y="60" width="30" height="30" fill="currentColor" /><rect x="90" y="60" width="30" height="30" fill="currentColor" /><rect x="120" y="60" width="30" height="30" fill="currentColor" /><rect x="210" y="60" width="30" height="30" fill="currentColor" /><rect x="240" y="60" width="30" height="30" fill="currentColor" /><rect x="30" y="90" width="30" height="30" fill="currentColor" /><rect x="90" y="90" width="30" height="30" fill="currentColor" /><rect x="150" y="90" width="30" height="30" fill="currentColor" /><rect x="210" y="90" width="30" height="30" fill="currentColor" /><rect x="270" y="90" width="30" height="30" fill="currentColor" /><rect x="30" y="120" width="30" height="30" fill="currentColor" /><rect x="90" y="120" width="30" height="30" fill="currentColor" /><rect x="150" y="120" width="30" height="30" fill="currentColor" /><rect x="210" y="120" width="30" height="30" fill="currentColor" /><rect x="270" y="120" width="30" height="30" fill="currentColor" /><rect x="30" y="150" width="30" height="30" fill="currentColor" /><rect x="90" y="150" width="30" height="30" fill="currentColor" /><rect x="150" y="150" width="30" height="30" fill="currentColor" /><rect x="210" y="150" width="30" height="30" fill="currentColor" /><rect x="270" y="150" width="30" height="30" fill="currentColor" /><rect x="30" y="180" width="30" height="30" fill="currentColor" /><rect x="90" y="180" width="30" height="30" fill="currentColor" /><rect x="120" y="180" width="30" height="30" fill="currentColor" /><rect x="150" y="180" width="30" height="30" fill="currentColor" /><rect x="210" y="180" width="30" height="30" fill="currentColor" /><rect x="240" y="180" width="30" height="30" fill="currentColor" /><rect x="270" y="180" width="30" height="30" fill="currentColor" /><rect x="30" y="240" width="30" height="30" fill="currentColor" /><rect x="60" y="240" width="30" height="30" fill="currentColor" /><rect x="90" y="240" width="30" height="30" fill="currentColor" /><rect x="120" y="240" width="30" height="30" fill="currentColor" /><rect x="150" y="240" width="30" height="30" fill="currentColor" /><rect x="180" y="240" width="30" height="30" fill="currentColor" /><rect x="210" y="240" width="30" height="30" fill="currentColor" /><rect x="240" y="240" width="30" height="30" fill="currentColor" /><rect x="270" y="240" width="30" height="30" fill="currentColor" /></svg>