<svg xmlns="http://www.w3.org/2000/svg" viewBox="0 0 1500 1500"><path d="M1200 180h30v30h-30zM1330 180v30h-30v-30zM1430 180v30h-30v-30zM130 210v30h-30v-30zM230 210v30h-30v-30zM330 210v30h-30v-30zM530 210v30h-30v-30zM630 210v30h-30v-30zM730 210v30h-30v-30zM230 300v30h-30v-30zM730 300v30h-30v-30zM1130 300v30h-30v-30zM730 390v30h-30v-30zM1230 390v30h-30v-30zM130 420v30h-30v-30zM1230 480v30h-30v-30zM230 510v30h-30v-30zM630 510v30h-30v-30zM230 600v30h-30v-30zM730 600v30h-30v-30zM1130 600v30h-30v-30zM730 690v30h-30v-30zM830 690v30h-30v-30zM930 690v30h-30v-30zM1230 690v30h-30v-30zM130 720v30h-30v-30zM1230 780v30h-30v-30zM230 810v30h-30v-30zM630 810v30h-30v-30zM230 900v30h-30v-30zM730 900v30h-30v-30zM1130 900v30h-30v-30zM730 990v30h-30v-30zM1230 990v30h-30v-30zM130 1020v30h-30v-30zM1230 1080v30h-30v-30zM230 1110v30h-30v-30zM630 1110v30h-30v-30zM230 1200v30h-30v-30zM630 1200v30h-30v-30zM730 1200v30h-30v-30zM830 1200v30h-30v-30zM1130 1200v30h-30v-30z" fill="currentColor"/></svg>