<svg xmlns="http://www.w3.org/2000/svg" viewBox="0 0 1500 1500"><rect x="200" y="200" width="100" height="100" fill="currentColor" /><rect x="300" y="200" width="100" height="100" fill="currentColor" /><rect x="400" y="200" width="100" height="100" fill="currentColor" /><rect x="600" y="200" width="100" height="100" fill="currentColor" /><rect x="700" y="200" width="100" height="100" fill="currentColor" /><rect x="800" y="200" width="100" height="100" fill="currentColor" /><rect x="1000" y="200" width="100" height="100" fill="currentColor" /><rect x="1100" y="200" width="100" height="100" fill="currentColor" /><rect x="1200" y="200" width="100" height="100" fill="currentColor" /><rect x="200" y="300" width="100" height="100" fill="currentColor" /><rect x="700" y="300" width="100" height="100" fill="currentColor" /><rect x="1100" y="300" width="100" height="100" fill="currentColor" /><rect x="200" y="400" width="100" height="100" fill="currentColor" /><rect x="700" y="400" width="100" height="100" fill="currentColor" /><rect x="1100" y="400" width="100" height="100" fill="currentColor" /><rect x="200" y="500" width="100" height="100" fill="currentColor" /><rect x="700" y="500" width="100" height="100" fill="currentColor" /><rect x="1100" y="500" width="100" height="100" fill="currentColor" /><rect x="200" y="600" width="100" height="100" fill="currentColor" /><rect x="700" y="600" width="100" height="100" fill="currentColor" /><rect x="1100" y="600" width="100" height="100" fill="currentColor" /><rect x="200" y="700" width="100" height="100" fill="currentColor" /><rect x="300" y="700" width="100" height="100" fill="currentColor" /><rect x="400" y="700" width="100" height="100" fill="currentColor" /><rect x="700" y="700" width="100" height="100" fill="currentColor" /><rect x="1100" y="700" width="100" height="100" fill="currentColor" /><rect x="200" y="800" width="100" height="100" fill="currentColor" /><rect x="700" y="800" width="100" height="100" fill="currentColor" /><rect x="1100" y="800" width="100" height="100" fill="currentColor" /><rect x="200" y="900" width="100" height="100" fill="currentColor" /><rect x="700" y="900" width="100" height="100" fill="currentColor" /><rect x="1100" y="900" width="100" height="100" fill="currentColor" /><rect x="200" y="1000" width="100" height="100" fill="currentColor" /><rect x="700" y="1000" width="100" height="100" fill="currentColor" /><rect x="1100" y="1000" width="100" height="100" fill="currentColor" /><rect x="200" y="1100" width="100" height="100" fill="currentColor" /><rect x="700" y="1100" width="100" height="100" fill="currentColor" /><rect x="1100" y="1100" width="100" height="100" fill="currentColor" /><rect x="200" y="1200" width="100" height="100" fill="currentColor" /><rect x="600" y="1200" width="100" height="100" fill="currentColor" /><rect x="700" y="1200" width="100" height="100" fill="currentColor" /><rect x="800" y="1200" width="100" height="100" fill="currentColor" /><rect x="1100" y="1200" width="100" height="100" fill="currentColor" /></svg>