<svg xmlns="http://www.w3.org/2000/svg" viewBox="0 0 390 390"><rect x="90" y="60" width="30" height="30" fill="currentColor" /><rect x="120" y="60" width="30" height="30" fill="currentColor" /><rect x="150" y="60" width="30" height="30" fill="currentColor" /><rect x="180" y="60" width="30" height="30" fill="currentColor" /><rect x="210" y="60" width="30" height="30" fill="currentColor" /><rect x="240" y="60" width="30" height="30" fill="currentColor" /><rect x="270" y="60" width="30" height="30" fill="currentColor" /><rect x="60" y="90" width="30" height="30" fill="currentColor" /><rect x="300" y="90" width="30" height="30" fill="currentColor" /><rect x="30" y="120" width="30" height="30" fill="currentColor" /><rect x="120" y="120" width="30" height="30" fill="currentColor" /><rect x="240" y="120" width="30" height="30" fill="currentColor" /><rect x="330" y="120" width="30" height="30" fill="currentColor" /><rect x="30" y="150" width="30" height="30" fill="currentColor" /><rect x="90" y="150" width="30" height="30" fill="currentColor" /><rect x="120" y="150" width="30" height="30" fill="currentColor" /><rect x="150" y="150" width="30" height="30" fill="currentColor" /><rect x="210" y="150" width="30" height="30" fill="currentColor" /><rect x="270" y="150" width="30" height="30" fill="currentColor" /><rect x="330" y="150" width="30" height="30" fill="currentColor" /><rect x="30" y="180" width="30" height="30" fill="currentColor" /><rect x="120" y="180" width="30" height="30" fill="currentColor" /><rect x="240" y="180" width="30" height="30" fill="currentColor" /><rect x="330" y="180" width="30" height="30" fill="currentColor" /><rect x="30" y="210" width="30" height="30" fill="currentColor" /><rect x="60" y="210" width="30" height="30" fill="currentColor" /><rect x="300" y="210" width="30" height="30" fill="currentColor" /><rect x="330" y="210" width="30" height="30" fill="currentColor" /><rect x="30" y="240" width="30" height="30" fill="currentColor" /><rect x="90" y="240" width="30" height="30" fill="currentColor" /><rect x="120" y="240" width="30" height="30" fill="currentColor" /><rect x="150" y="240" width="30" height="30" fill="currentColor" /><rect x="180" y="240" width="30" height="30" fill="currentColor" /><rect x="210" y="240" width="30" height="30" fill="currentColor" /><rect x="240" y="240" width="30" height="30" fill="currentColor" /><rect x="270" y="240" width="30" height="30" fill="currentColor" /><rect x="330" y="240" width="30" height="30" fill="currentColor" /><rect x="30" y="270" width="30" height="30" fill="currentColor" /><rect x="90" y="270" width="30" height="30" fill="currentColor" /><rect x="270" y="270" width="30" height="30" fill="currentColor" /><rect x="330" y="270" width="30" height="30" fill="currentColor" /><rect x="30" y="300" width="30" height="30" fill="currentColor" /><rect x="60" y="300" width="30" height="30" fill="currentColor" /><rect x="300" y="300" width="30" height="30" fill="currentColor" /><rect x="330" y="300" width="30" height="30" fill="currentColor" /></svg>