<svg xmlns="http://www.w3.org/2000/svg" viewBox="0 0 960 960"><path d="M360 150h90v90h-30v-60h-60zM360 210v30h-30v30h120v-30h30v30h60v30h-450v30h30v30h30v30h-30v150h30v-150h30v60h30v30h-30v90h-90v-180h-30v-30h-30v-60h30v-30h30v-30h60v-30h30v60h120v-30h-30v-30h60v-30h30zM570 300h30v30h-60v-30zM630 330h150v30h120v180h-60v-30h-30v-60h-30v-30h-210v-30h-30v30h-30v-60h60v30h180v-30h-150v-30zM360 360h90v60h-30v-30h-60v30h-30v-60zM810 390v60h30v60h30v-120zM390 420h30v30h-30v30h-30v-60zM480 420v60h-30v-60zM570 420v60h-30v-60zM240 480v60h-30v-60zM420 480v60h-30v-60zM510 480v60h30v-30h30v-30h30v60h-60v30h-90v30h-60v30h-30v-30h-60v30h-30v-30h-30v-60h30v30h150v-30h60v-60zM330 630v30h-30v-30zM420 630v60h-30v-60zM360 660v60h-30v-60zM450 690v60h-30v-60zM390 720v30h30v30h-60v-60z" fill="currentColor"/><path d="M420 180v60h30v30h-120v-30h30v-60zM150 420v120h-30v-150h30z" fill="rgba(69,69,69,255)"/><path d="M150 300h390v30h60v30h150v30h-180v-30h-450v-30h-30v-30zM870 390v120h-30v-60h-30v-60zM360 600v30h30v60h30v60h-30v-30h-30v-60h-30v-30h-30v-30z" fill="rgba(112,112,112,255)"/><path d="M180 360h150v60h30v60h30v60h30v30h-150v-30h-30v-60h-30v-30h-30v-60h-30v-30zM480 360h30v60h30v60h30v30h-30v30h-30v-60h-30v-60h-30v-60z" fill="rgba(180,185,141,255)"/></svg>