<svg xmlns="http://www.w3.org/2000/svg" viewBox="0 0 360 360"><rect x="210" y="30" width="30" height="30" fill="currentColor" /><rect x="180" y="60" width="30" height="30" fill="currentColor" /><rect x="210" y="60" width="30" height="30" fill="currentColor" /><rect x="240" y="60" width="30" height="30" fill="currentColor" /><rect x="210" y="90" width="30" height="30" fill="currentColor" /><rect x="180" y="120" width="30" height="30" fill="currentColor" /><rect x="210" y="120" width="30" height="30" fill="currentColor" /><rect x="240" y="120" width="30" height="30" fill="currentColor" /><rect x="90" y="150" width="30" height="30" fill="currentColor" /><rect x="180" y="150" width="30" height="30" fill="currentColor" /><rect x="240" y="150" width="30" height="30" fill="currentColor" /><rect x="90" y="180" width="30" height="30" fill="currentColor" /><rect x="180" y="180" width="30" height="30" fill="currentColor" /><rect x="210" y="180" width="30" height="30" fill="currentColor" /><rect x="240" y="180" width="30" height="30" fill="currentColor" /><rect x="60" y="210" width="30" height="30" fill="currentColor" /><rect x="90" y="210" width="30" height="30" fill="currentColor" /><rect x="120" y="210" width="30" height="30" fill="currentColor" /><rect x="210" y="210" width="30" height="30" fill="currentColor" /><rect x="270" y="210" width="30" height="30" fill="currentColor" /><rect x="90" y="240" width="30" height="30" fill="currentColor" /><rect x="240" y="240" width="30" height="30" fill="currentColor" /><rect x="90" y="270" width="30" height="30" fill="currentColor" /><rect x="180" y="270" width="30" height="30" fill="currentColor" /><rect x="210" y="270" width="30" height="30" fill="currentColor" /><rect x="270" y="270" width="30" height="30" fill="currentColor" /><rect x="270" y="300" width="30" height="30" fill="currentColor" /></svg>