<svg xmlns="http://www.w3.org/2000/svg" viewBox="0 0 450 450"><path d="M240 30h60v30h-30v30h-60v-30h30zM210 120h-30v-30h30zM300 90v30h-30v-30zM180 150h-30v-30h30zM330 120v30h-30v-30zM150 180h-30v60h-30v120h-30v-210h90zM360 150v30h-30v-30zM390 180v30h-30v-30zM420 210v30h-30v-30zM150 240v30h-30v-30zM390 270h-30v-30h30zM180 270v30h-30v-30zM360 300h-30v-30h30zM210 300v30h-30v-30zM330 330h-30v-30h30zM240 330v30h-30v-30zM300 360h-30v-30h30zM270 360v30h150v30h-390v-30h210v-30z" fill="currentColor"/></svg>