<svg xmlns="http://www.w3.org/2000/svg" viewBox="0 0 450 450"><path d="M210 30h30v30h-30zM270 60v30h150v90h-30v120h-30v-60h-30v-30h-30v-30h-30v30h-30v-30h-30v30h-30v-30h-30v30h-30v-30h-30v30h30v30h-30v60h-30v-120h-30v-90h150v-30h30v30h30v-30zM60 150h330v-30h-330zM330 210h30v-30h-30zM180 210v30h-30v-30zM240 210v30h-30v-30zM300 210v30h-30v-30zM150 240v90h-30v60h30v-60h30v-90h30v90h-30v60h30v-60h30v-90h30v90h-30v60h30v-60h30v-90h30v60h30v120h-270v-120h30v-60zM300 330v60h30v-60z" fill="currentcolor"/></svg>