<svg xmlns="http://www.w3.org/2000/svg" viewBox="0 0 960 960"><path d="M240 120h90v30h-90zM240 180v30h-30v-60h30zM360 150v60h-30v-60zM660 120h60v30h-90v-30zM630 180v30h-30v-60h30zM750 150v60h-30v-60zM210 240v90h-30v-120h30zM390 210v30h180v-30h30v60h-240v-60zM780 210v120h-30v-120zM360 270v30h-30v-30zM630 270v30h-30v-30zM240 330v30h-30v-30zM750 330v30h-30v-30zM210 390v30h-30v-60h30zM780 360v60h-30v-60zM180 450v30h-30v-60h30zM360 420v30h-60v-30zM660 420v30h-60v-30zM810 420v60h-30v-60zM300 480v150h-30v-180h30zM390 450v180h-30v-180zM600 480v150h-30v-180h30zM690 450v180h-30v-180zM150 510v150h-30v-180h30zM840 480v180h-30v-180zM330 630h30v30h-60v-30zM630 630h30v30h-60v-30zM180 660v60h-30v-60zM810 690v30h-30v-60h30zM210 720v30h-30v-30zM780 720v30h-30v-30zM240 750h30v30h-60v-30zM720 750h30v30h-60v-30zM300 780h60v30h-90v-30zM660 780h30v30h-90v-30zM390 810h210v30h-240v-30z" fill="currentColor"/><path d="M300 150h30v60h30v60h-30v-30h-30v-30h-30v30h-30v90h-30v-120h30v-60zM690 150h30v60h30v120h-30v-90h-30v-30h-30v30h-30v30h-30v-60h30v-60zM390 270h210v30h60v30h60v30h30v60h30v60h30v180h-30v60h-30v-30h-120v60h60v30h-90v30h-240v-30h-90v-30h60v-60h-120v30h-30v-60h-30v-180h30v-60h30v-60h30v-30h60v-30h60v-30zM300 420v30h-30v180h30v30h60v-30h30v-180h-30v-30zM600 420v30h-30v180h30v30h60v-30h30v-180h-30v-30z" fill="rgba(255,255,255,255)"/><path d="M300 240h30v60h-30v30h-60v-90h30v-30h30zM690 240h30v90h-60v-30h-30v-60h30v-30h30zM270 690h60v60h-120v-60zM690 690h60v60h-120v-60z" fill="rgba(255,194,194,255)"/><path d="M300 480v-30h60v180h-60zM600 480v-30h60v180h-60z" fill="rgba(250,236,134,255)"/></svg>